<svg width="18" height="18" viewBox="0 0 18 18" fill="none" xmlns="http://www.w3.org/2000/svg">
<path d="M9 0C7.21997 0 5.47991 0.527841 3.99987 1.51677C2.51983 2.50571 1.36628 3.91131 0.685088 5.55585C0.00389956 7.20038 -0.17433 9.00998 0.172936 10.7558C0.520203 12.5016 1.37737 14.1053 2.63604 15.364C3.89471 16.6226 5.49836 17.4798 7.24419 17.8271C8.99002 18.1743 10.7996 17.9961 12.4442 17.3149C14.0887 16.6337 15.4943 15.4802 16.4832 14.0001C17.4722 12.5201 18 10.78 18 9C18 7.8181 17.7672 6.64778 17.3149 5.55585C16.8626 4.46392 16.1997 3.47177 15.364 2.63604C14.5282 1.80031 13.5361 1.13738 12.4442 0.685084C11.3522 0.232792 10.1819 0 9 0ZM9 17.1587C7.38636 17.1587 5.80895 16.6802 4.46725 15.7837C3.12555 14.8872 2.07983 13.613 1.46231 12.1222C0.844798 10.6314 0.683228 8.99095 0.998035 7.40831C1.31284 5.82567 2.08989 4.37192 3.23091 3.2309C4.37192 2.08988 5.82567 1.31284 7.40831 0.998031C8.99095 0.683224 10.6314 0.844794 12.1222 1.46231C13.613 2.07983 14.8872 3.12555 15.7837 4.46725C16.6802 5.80894 17.1587 7.38635 17.1587 9C17.1562 11.1631 16.2958 13.2368 14.7663 14.7663C13.2368 16.2958 11.1631 17.1562 9 17.1587ZM2.35516 8.91663C2.35516 10.7011 3.06402 12.4124 4.32581 13.6742C5.58759 14.936 7.29894 15.6448 9.08337 15.6448V2.17895C8.19901 2.17895 7.32333 2.35329 6.50641 2.69201C5.68948 3.03072 4.94735 3.52717 4.32246 4.15294C3.69756 4.77872 3.20216 5.52155 2.86459 6.33895C2.52703 7.15634 2.35392 8.03227 2.35516 8.91663Z" fill="#5E5E5E"/>
</svg>
