<svg width="18" height="18" viewBox="0 0 18 18" fill="none" xmlns="http://www.w3.org/2000/svg">
<path d="M9 0C4.03714 0 0 4.03714 0 9C0 13.9629 4.03714 18 9 18C13.9629 18 18 13.9629 18 9C18 4.03714 13.9629 0 9 0ZM9 16.7143C4.74665 16.7143 1.28571 13.2533 1.28571 9C1.28571 4.74665 4.74665 1.28571 9 1.28571C13.2533 1.28571 16.7143 4.74665 16.7143 9C16.7143 13.2533 13.2533 16.7143 9 16.7143ZM16.0714 9C16.0714 10.8876 15.3354 12.6636 13.9991 13.9991C12.8435 15.1554 11.3184 15.8786 9.70478 16.0361L9.00004 16.1052V1.89488L9.70558 1.96399C11.3183 2.12149 12.8435 2.8447 13.9999 4.00104C15.3354 5.33657 16.0714 7.11237 16.0714 9Z" fill="#5E5E5E"/>
</svg>
