<svg width="198" height="195" viewBox="0 0 198 195" fill="none" xmlns="http://www.w3.org/2000/svg">
<path d="M157.664 173.264H21.424V42.6401H96.304L117.52 21.4241H14.56C6.448 21.4241 0 28.0801 0 36.1921V179.92C0 188.032 6.448 194.688 14.56 194.688H164.32C172.432 194.688 178.88 188.032 178.88 179.92V77.3761L157.664 98.3841V173.264Z" fill="#5E5E5E"/>
<path d="M196.144 24.96L172.848 1.456C171.808 0.624 170.768 0 169.312 0C168.064 0 166.816 0.624 165.776 1.456L78.4161 88.608C77.5841 89.232 77.1681 90.272 76.9601 91.312L71.7601 119.808C71.5521 121.472 71.9681 123.136 73.2161 124.176C74.0481 125.008 75.2961 125.632 76.3361 125.84C76.7521 125.84 77.1681 125.84 77.5841 125.632L106.288 120.432C107.328 120.224 108.16 119.808 108.784 118.976L196.144 31.824C198.016 29.952 198.016 26.832 196.144 24.96Z" fill="#5E5E5E"/>
</svg>
